<svg width="113" height="29" viewBox="0 0 113 29" fill="none" xmlns="http://www.w3.org/2000/svg">
<g clip-path="url(#clip0_4_104)">
<path d="M46.6132 23.6004C46.0861 23.6004 45.5814 23.5563 45.1096 23.4625C44.6556 23.3766 44.2127 23.2397 43.7894 23.0544C43.3914 22.8811 43.0197 22.6525 42.6855 22.3754C42.3644 22.1071 42.084 21.7935 41.8532 21.4444C41.6198 21.088 41.4441 20.6971 41.3324 20.2859C41.2138 19.8436 41.1558 19.3872 41.1602 18.9293C41.1602 18.0851 41.31 17.3466 41.6152 16.7229C41.9203 16.0967 42.3875 15.5635 42.9683 15.1787C43.5563 14.7874 44.2388 14.4892 45.0102 14.2911C45.7809 14.0923 46.6356 13.9929 47.5722 13.9929C48.3716 13.9929 49.1542 14.0538 49.9242 14.1749C50.6956 14.2967 51.4446 14.4843 52.1768 14.7265V13.6065C52.1768 13.1277 52.1103 12.714 51.9773 12.3605C51.857 12.0259 51.6502 11.7291 51.3781 11.5002C51.1065 11.2797 50.7516 11.1082 50.3071 10.9983C49.864 10.8884 49.3369 10.8275 48.7265 10.8275C48.3436 10.8275 47.9495 10.8555 47.5505 10.9101C47.1515 10.9661 46.7406 11.0431 46.3248 11.153C46.0637 11.2195 45.7088 11.335 45.3259 11.4785C44.9437 11.622 44.5279 11.7816 44.1387 11.9419C43.9894 12.0047 43.8292 12.037 43.6673 12.037C43.5053 12.037 43.3451 12.0047 43.1958 11.9419C43.0462 11.8817 42.9103 11.7921 42.7961 11.6783C42.6818 11.5646 42.5916 11.429 42.5308 11.2797L42.5084 11.2244L42.486 11.1698C42.4241 11.0222 42.3923 10.8637 42.3923 10.7036C42.3923 10.5436 42.4241 10.3851 42.486 10.2374C42.6078 9.95043 42.836 9.70823 43.1461 9.57593C43.5979 9.38707 44.0547 9.21037 44.516 9.04603C44.971 8.88643 45.398 8.74853 45.7368 8.67153C46.7376 8.42964 47.7633 8.3056 48.793 8.30193C49.7863 8.30193 50.6571 8.41183 51.411 8.63793C52.16 8.86403 52.7928 9.19513 53.2919 9.64173C53.7966 10.0883 54.1739 10.6455 54.4294 11.3077C54.6842 11.9692 54.8123 12.7413 54.8123 13.6128V22.15C54.8123 22.4972 54.6674 22.8227 54.4406 23.06C54.3266 23.182 54.188 23.2785 54.0341 23.3431C53.8802 23.4078 53.7143 23.4392 53.5474 23.4352C53.2256 23.4272 52.9195 23.2947 52.6934 23.0656C52.4692 22.8376 52.3436 22.5307 52.3434 22.2109V21.527C51.5701 22.1425 50.7125 22.6439 49.7968 23.0159C49.2985 23.2139 48.7823 23.3635 48.2554 23.4625C47.7194 23.5626 47.1753 23.6125 46.63 23.6116L46.6132 23.6004ZM47.5841 16.4583C47.0017 16.4583 46.4802 16.508 46.014 16.6074C45.5478 16.7068 45.1544 16.8552 44.8212 17.054C44.4943 17.2472 44.2556 17.4894 44.0946 17.7932C43.9336 18.0963 43.8566 18.4547 43.8566 18.8796C43.8566 19.238 43.9168 19.5523 44.0386 19.8281C44.1611 20.1039 44.3445 20.3356 44.5937 20.5337C44.8436 20.7325 45.1432 20.8816 45.4981 20.981C45.8943 21.0854 46.3029 21.1353 46.7126 21.1294C47.7042 21.1316 48.6845 20.9191 49.5861 20.5064C50.4961 20.0934 51.3613 19.4753 52.1712 18.6535V17.1205C51.8331 17.0155 51.4894 16.9217 51.1282 16.8447C50.7597 16.7613 50.3879 16.6931 50.0138 16.6403C49.6148 16.5801 49.2088 16.5353 48.7986 16.508C48.3925 16.4796 47.9856 16.4649 47.5785 16.4639L47.5841 16.4583ZM34.7531 22.2214L37.46 16.1769L40.1669 10.1324C40.3118 9.80763 40.3118 9.46043 40.1949 9.15103C40.1348 8.99355 40.044 8.84958 39.9278 8.72748C39.8116 8.60539 39.6723 8.50761 39.518 8.43983L39.4963 8.42863L39.4739 8.41743C39.1612 8.27932 38.8069 8.26927 38.4869 8.38943C38.3289 8.44866 38.1842 8.53869 38.0613 8.65429C37.9384 8.76989 37.8396 8.90876 37.7708 9.06283L35.2466 14.6992L32.7224 20.3356L30.1989 14.6992L27.6747 9.06283C27.6068 8.9084 27.5084 8.76923 27.3855 8.65366C27.2626 8.53808 27.1176 8.44845 26.9593 8.39013C26.6393 8.26997 26.285 8.28002 25.9723 8.41813L25.9499 8.42863L25.9275 8.43983C25.5999 8.58333 25.3675 8.84233 25.2506 9.15103C25.1344 9.45413 25.1344 9.80763 25.2786 10.1324L27.9855 16.1769L30.6924 22.2214C30.8534 22.5798 31.1138 22.878 31.4302 23.0824C31.7466 23.2854 32.1232 23.4016 32.5229 23.4016H32.9338C33.3272 23.4016 33.7045 23.2861 34.0258 23.0817C34.3513 22.874 34.6083 22.5747 34.7643 22.2214H34.7531ZM83.5305 23.5724C81.3563 23.5724 79.4201 22.7786 78.0166 21.4549C76.6131 20.1319 75.7311 18.2783 75.6702 16.172C75.636 15.1475 75.8096 14.1267 76.1805 13.1711C76.5547 12.215 77.1188 11.3446 77.8388 10.6126C78.5554 9.87316 79.414 9.28602 80.363 8.88643C81.3127 8.48641 82.3334 8.28191 83.3639 8.28513C85.4002 8.28513 87.3084 9.10693 88.7119 10.3921C90.1154 11.6766 91.0086 13.4301 91.0086 15.3005V15.3775C91.0086 15.6925 90.8805 15.9725 90.6754 16.1825C90.4703 16.3925 90.1819 16.5136 89.8655 16.5136H82.5652C82.2271 16.5136 81.9163 16.3757 81.6944 16.1552C81.5803 16.0417 81.4896 15.9068 81.4278 15.7582C81.3659 15.6096 81.334 15.4503 81.3339 15.2893V15.2123C81.3339 14.8756 81.4725 14.5669 81.6944 14.3464C81.9261 14.1168 82.239 13.988 82.5652 13.988H88.1239C87.7739 13.0997 87.0977 12.3276 86.2486 11.7816C85.4058 11.23 84.3901 10.9045 83.3695 10.9045C82.6684 10.9051 81.9752 11.0517 81.3339 11.335C80.6917 11.6177 80.1141 12.0286 79.6364 12.5425C79.1594 13.0554 78.7946 13.6622 78.5654 14.324C78.3402 14.9869 78.2553 15.6895 78.3162 16.3869C78.4268 17.6714 79.054 18.8187 79.9969 19.6461C80.9779 20.5049 82.2379 20.9774 83.5417 20.9754C83.625 20.9754 83.7027 20.9754 83.786 20.9698L84.0296 20.953C84.8161 20.8824 85.587 20.6909 86.3151 20.3853C87.0468 20.0755 87.7276 19.6571 88.3346 19.1442C88.4564 19.0392 88.5894 18.9622 88.7336 18.9069C89.0288 18.7966 89.354 18.7966 89.6492 18.9069C89.7934 18.9629 89.9264 19.0448 90.0489 19.1498L90.0706 19.1722L90.093 19.1939C90.2316 19.315 90.3373 19.4697 90.4094 19.6349C90.4815 19.8008 90.52 19.9828 90.52 20.1648C90.5187 20.342 90.4794 20.5169 90.4047 20.6776C90.3301 20.8383 90.2219 20.9812 90.0874 21.0965C88.5882 22.3853 86.7523 23.2195 84.7954 23.501C84.5847 23.529 84.374 23.5507 84.1626 23.5675C83.9519 23.5836 83.7412 23.5892 83.5305 23.5892V23.5724ZM111.073 23.4128C110.733 23.4134 110.406 23.279 110.165 23.0391C109.924 22.7992 109.787 22.4734 109.786 22.1332V12.7854C109.786 12.2618 109.481 11.7928 108.982 11.4505C108.482 11.1089 107.8 10.894 107.046 10.894C106.291 10.894 105.603 11.104 105.109 11.4505C104.61 11.7928 104.305 12.2667 104.305 12.7854V22.0506C104.305 22.4258 104.15 22.7674 103.9 23.0159C103.643 23.2733 103.294 23.418 102.93 23.4184C102.559 23.4183 102.203 23.274 101.936 23.0159C101.809 22.8897 101.707 22.7394 101.638 22.5737C101.568 22.408 101.532 22.2303 101.532 22.0506V12.7854C101.532 12.2618 101.227 11.7928 100.727 11.4505C100.228 11.1089 99.5458 10.894 98.7912 10.894C98.0366 10.894 97.3485 11.104 96.855 11.4505C96.3615 11.7984 96.0507 12.2667 96.0507 12.7854V22.1332C96.049 22.4733 95.9127 22.7989 95.6716 23.0387C95.4305 23.2785 95.1042 23.413 94.7641 23.4128H94.7081C94.368 23.413 94.0417 23.2785 93.8006 23.0387C93.5595 22.7989 93.4232 22.4733 93.4215 22.1332V9.56543C93.4232 9.22536 93.5595 8.8998 93.8006 8.65999C94.0417 8.42017 94.368 8.28564 94.7081 8.28583H94.7641C95.0854 8.28583 95.3794 8.40133 95.6013 8.59453C95.8232 8.78773 95.9842 9.05793 96.0339 9.36663C96.4873 9.01412 96.9978 8.74185 97.5431 8.56163C98.0958 8.37668 98.6746 8.28167 99.2574 8.28023C100.056 8.28023 100.832 8.45663 101.532 8.78773C102.226 9.11461 102.837 9.59585 103.317 10.1947C103.795 9.59319 104.407 9.11143 105.104 8.78773C105.816 8.45443 106.592 8.2812 107.378 8.28023C108.77 8.28023 110.03 8.81013 110.945 9.66483C111.861 10.5188 112.426 11.6997 112.426 13.0066V22.1346C112.425 22.4748 112.288 22.8003 112.047 23.0401C111.806 23.2799 111.479 23.4144 111.139 23.4142H111.073V23.4128ZM8.8139 23.4128C7.8598 23.4128 7.1885 22.9606 6.8224 22.073L0.531501 6.53163C0.448397 6.38342 0.40635 6.21572 0.409701 6.04583C0.409701 5.68183 0.537101 5.36753 0.792601 5.10293C0.915581 4.97272 1.06442 4.86965 1.22957 4.80034C1.39472 4.73103 1.57253 4.697 1.7516 4.70043C2.4236 4.70043 2.845 4.99793 3.0116 5.56633L8.8139 20.3083L14.6218 5.55443C14.8661 4.99303 15.2875 4.70043 15.8755 4.70043C16.2416 4.70043 16.558 4.83343 16.824 5.09733C17.0851 5.36193 17.223 5.67693 17.223 6.04093C17.223 6.18933 17.1845 6.34893 17.1019 6.53093L10.811 22.0674C10.461 22.955 9.7904 23.4072 8.8139 23.4072V23.4128ZM22.4548 10.2815C22.4548 9.55913 21.8668 8.97463 21.1402 8.97463C20.9681 8.97408 20.7975 9.00745 20.6383 9.07284C20.479 9.13823 20.3342 9.23435 20.2121 9.35571C20.09 9.47708 19.9931 9.62131 19.9268 9.78017C19.8604 9.93902 19.8261 10.1094 19.8256 10.2815V22.1059C19.8256 22.8283 20.4136 23.4128 21.1402 23.4128C21.3123 23.4134 21.4829 23.38 21.6422 23.3146C21.8014 23.2492 21.9462 23.1531 22.0683 23.0317C22.1904 22.9104 22.2873 22.7662 22.3536 22.6073C22.42 22.4484 22.4543 22.2781 22.4548 22.1059V10.2815ZM73.4897 16.4968C73.3558 16.0325 73.144 15.5944 72.8632 15.2011C72.6064 14.8465 72.2999 14.5306 71.9532 14.2631C71.5819 13.9831 71.1775 13.7499 70.7492 13.5687C71.0257 13.3865 71.2824 13.1758 71.515 12.9401C71.7425 12.7084 71.9364 12.4494 72.103 12.1736C72.2926 11.8499 72.4346 11.5005 72.5244 11.1362C72.6219 10.7485 72.6703 10.3502 72.6686 9.95043C72.6715 9.45861 72.6158 8.96819 72.5027 8.48953C72.3961 8.04371 72.2279 7.61492 72.0029 7.21553C71.7815 6.82368 71.501 6.46833 71.1713 6.16203C70.826 5.84406 70.4373 5.57657 70.017 5.36753C69.5585 5.13899 69.0717 4.97211 68.5694 4.87123C68.0014 4.75709 67.4232 4.70173 66.8439 4.70603H59.2727C58.9386 4.70621 58.6182 4.83848 58.3812 5.07399C58.1442 5.3095 58.01 5.62915 58.0078 5.96323C58.01 6.29731 58.1442 6.61696 58.3812 6.85247C58.6182 7.08799 58.9386 7.22025 59.2727 7.22043H66.5009C67.6713 7.22043 68.5421 7.44163 69.1189 7.89943C69.6964 8.35163 69.9792 9.03553 69.9792 9.95043C69.9792 10.3865 69.9071 10.7666 69.7685 11.0984C69.6246 11.4287 69.4015 11.7184 69.1189 11.9419C68.8305 12.1729 68.4644 12.35 68.0269 12.4711C67.588 12.5873 67.0777 12.6475 66.5009 12.6475H61.7577V10.5132C61.7577 9.79083 61.1697 9.20633 60.4431 9.20633C60.271 9.20578 60.1004 9.23915 59.9412 9.30454C59.7819 9.36993 59.6371 9.46605 59.515 9.58741C59.3929 9.70878 59.296 9.85301 59.2297 10.0119C59.1633 10.1707 59.129 10.3411 59.1285 10.5132V16.9882C59.1285 17.7106 59.7165 18.2951 60.4431 18.2951C60.6152 18.2957 60.7858 18.2623 60.9451 18.1969C61.1043 18.1315 61.2491 18.0354 61.3712 17.914C61.4933 17.7927 61.5902 17.6485 61.6566 17.4896C61.7229 17.3307 61.7572 17.1604 61.7577 16.9882V15.1682H67.1722C67.8099 15.1682 68.3706 15.2284 68.8529 15.3502C69.3359 15.4713 69.7405 15.6533 70.0625 15.8906C70.3845 16.1272 70.6169 16.4254 70.7779 16.7838C70.9333 17.1422 71.011 17.5615 71.011 18.0522C71.011 18.5429 70.9333 18.9342 70.7723 19.2821C70.6113 19.6349 70.3733 19.9275 70.0457 20.1641C69.7181 20.407 69.3191 20.5841 68.8529 20.7052C68.3867 20.8263 67.8491 20.8872 67.2499 20.8872H59.272C58.9379 20.8874 58.6175 21.0197 58.3805 21.2552C58.1435 21.4907 58.0093 21.8104 58.0071 22.1444C58.0093 22.4785 58.1435 22.7982 58.3805 23.0337C58.6175 23.2692 58.9379 23.4015 59.272 23.4016H67.56C68.2033 23.4016 68.8025 23.347 69.3569 23.242C69.8794 23.1465 70.3881 22.9871 70.8717 22.7674C71.3141 22.567 71.7251 22.3033 72.0918 21.9848C72.4404 21.6762 72.7414 21.3176 72.985 20.9208C73.2297 20.5081 73.4129 20.062 73.5289 19.5964C73.6542 19.0876 73.7156 18.5651 73.7116 18.041C73.715 17.5134 73.6441 16.9879 73.5009 16.48L73.4897 16.4968ZM21.1451 7.46333C21.3268 7.46398 21.5068 7.42881 21.6749 7.35984C21.8429 7.29087 21.9958 7.18945 22.1246 7.06138C22.2535 6.93331 22.3558 6.7811 22.4258 6.61345C22.4958 6.4458 22.532 6.266 22.5325 6.08433C22.5325 5.32343 21.9116 4.70533 21.1451 4.70533C20.9635 4.70487 20.7837 4.74018 20.6158 4.80923C20.4479 4.87828 20.2952 4.97973 20.1665 5.10778C20.0378 5.23583 19.9356 5.38798 19.8657 5.55554C19.7958 5.72309 19.7596 5.90278 19.7591 6.08433C19.7591 6.84593 20.3793 7.46333 21.1451 7.46333Z" fill="#39B9AF"/>
</g>
<defs>
<clipPath id="clip0_4_104">
<rect width="112" height="28" fill="white" transform="translate(0.409698 0.5)"/>
</clipPath>
</defs>
</svg>
