<svg width="81" height="29" viewBox="0 0 81 29" fill="none" xmlns="http://www.w3.org/2000/svg">
<g clip-path="url(#clip0_4_368)">
<path d="M70.2258 5.0293L59.5221 23.1705H64.2037L70.2258 12.9687L76.2423 23.1698H80.9246L70.2258 5.0293Z" fill="#066A91"/>
<path d="M50.0336 23.6002C44.7108 23.6002 40.3813 19.3624 40.3813 14.153C40.3813 8.9422 44.7115 4.7002 50.0336 4.7002C55.3564 4.7002 59.6852 8.938 59.6852 14.1474C59.6852 19.3575 55.3564 23.5946 50.0343 23.5946L50.0336 23.6002ZM50.0336 8.85329C47.0495 8.85329 44.624 11.2263 44.624 14.1474C44.624 17.0685 47.0495 19.4422 50.0329 19.4422C53.017 19.4422 55.4425 17.0685 55.4425 14.1474C55.4425 11.227 53.017 8.85329 50.0336 8.85329Z" fill="#FFC073"/>
<path d="M29.0427 23.17C23.9593 23.17 19.8251 19.1233 19.8251 14.147C19.8251 9.17142 23.9593 5.12402 29.0427 5.12402H40.0516L39.9046 5.28432C38.8462 6.43771 38.0012 7.76998 37.4091 9.21902L37.3818 9.27782H29.0378C26.2987 9.27782 24.0685 11.4604 24.0685 14.1421C24.0685 16.8231 26.298 19.0064 29.0385 19.0064H37.3825L37.4091 19.0645C38.0012 20.5138 38.8461 21.8463 39.9046 22.9999L40.0516 23.1588H29.0427V23.17Z" fill="#ED588A"/>
<path d="M17.7363 23.1703V19.0172H0.424561V23.1703H17.7363ZM17.7363 9.28298V5.12988H0.424561V9.28298H17.7363Z" fill="#066A91"/>
<path d="M15.3444 16.2237V12.0713H0.424561V16.2237H15.3444Z" fill="#FFC073"/>
<path d="M67.0632 23.17L70.2258 17.8115L73.3835 23.1693H67.0625L67.0632 23.17Z" fill="#ED588A"/>
</g>
<defs>
<clipPath id="clip0_4_368">
<rect width="80.5" height="28" fill="white" transform="translate(0.424561 0.5)"/>
</clipPath>
</defs>
</svg>
